<svg xmlns="http://www.w3.org/2000/svg" viewBox="0 0 218 197" fill="currentColor" shape-rendering="geometricPrecision">
  <path d="M109.2 10.5C116.8 4.2 123.6 12.8 115.4 20.6C108.8 26.4 106.2 38.2 108.8 48.6L110.2 78.4C62.4 72.8 28.6 96.4 22.4 132.6C16.8 166.2 38.4 188.6 72.8 184.2C102.4 180.4 122.6 158.8 126.4 132.2C128.8 115.6 122.4 102.4 110.2 96.8L108.8 92.4C142.6 68.2 168.4 52.4 178.6 38.6C186.8 27.4 176.4 18.6 162.4 26.8C148.4 35 132.6 52.4 118.8 68.2L110.2 82.6C132.4 98.4 172.6 124.2 188.4 146.8C202.6 166.8 194.2 186.4 168.4 188.6C142.6 190.8 118.8 172.4 108.8 148.6C102.4 134.2 104.6 116.8 108.8 102.4L108.8 48.6C106.2 38.2 102.4 24.6 109.2 10.5Z"/>
</svg>
